ISO-10303-21;
HEADER;
/* Generated by software containing ST-Developer
 * from STEP Tools, Inc. (www.steptools.com) 
 */

FILE_DESCRIPTION(
/* description */ (''),
/* implementation_level */ '2;1');

FILE_NAME(
/* name */ 'ice_cream_cone.step',
/* time_stamp */ '2026-08-04T12:44:42-07:00',
/* author */ (''),
/* organization */ (''),
/* preprocessor_version */ 'ST-DEVELOPER v20.1',
/* originating_system */ 'Autodesk Translation Framework v15.8.0.0',
/* authorisation */ '');

FILE_SCHEMA (('AUTOMOTIVE_DESIGN { 1 0 10303 214 3 1 1 }'));
ENDSEC;

DATA;
#10=MECHANICAL_DESIGN_GEOMETRIC_PRESENTATION_REPRESENTATION('',(#13),#434);
#11=SHAPE_REPRESENTATION_RELATIONSHIP('SRR','None',#441,#12);
#12=ADVANCED_BREP_SHAPE_REPRESENTATION('',(#14),#433);
#13=STYLED_ITEM('',(#450),#14);
#14=MANIFOLD_SOLID_BREP('Body21',#168);
#15=PLANE('',#195);
#16=ELLIPSE('',#192,50.,40.0000000000034);
#17=ELLIPSE('',#193,50.,40.0000000000034);
#18=ELLIPSE('',#205,50.,40.);
#19=ELLIPSE('',#206,50.,40.);
#20=ELLIPSE('',#207,50.,40.0000000000034);
#21=ELLIPSE('',#208,50.,40.);
#22=(
BOUNDED_SURFACE()
B_SPLINE_SURFACE(2,2,((#285,#286,#287,#288,#289),(#290,#291,#292,#293,#294),
(#295,#296,#297,#298,#299)),.UNSPECIFIED.,.F.,.F.,.F.)
B_SPLINE_SURFACE_WITH_KNOTS((3,3),(3,2,3),(-0.675131241758905,0.471861837279733),
(0.,1.0471975511966,2.0943951023932),.UNSPECIFIED.)
GEOMETRIC_REPRESENTATION_ITEM()
RATIONAL_B_SPLINE_SURFACE(((1.,0.866025403784439,1.,0.866025403784439,1.),
(0.840008987776239,0.727469122821475,0.840008987776239,0.727469122821475,
0.840008987776239),(1.,0.866025403784439,1.,0.866025403784439,1.)))
REPRESENTATION_ITEM('')
SURFACE()
);
#23=(
BOUNDED_SURFACE()
B_SPLINE_SURFACE(2,2,((#321,#322,#323,#324,#325),(#326,#327,#328,#329,#330),
(#331,#332,#333,#334,#335),(#336,#337,#338,#339,#340),(#341,#342,#343,#344,
#345)),.UNSPECIFIED.,.F.,.F.,.F.)
B_SPLINE_SURFACE_WITH_KNOTS((3,2,3),(3,2,3),(-1.5707963267949,-0.5494672447579,
0.471861837279096),(0.,1.0471975511966,2.0943951023932),.UNSPECIFIED.)
GEOMETRIC_REPRESENTATION_ITEM()
RATIONAL_B_SPLINE_SURFACE(((1.,0.866025403784439,1.,0.866025403784439,1.),
(0.87241990115635,0.755537797168508,0.87241990115635,0.755537797168508,
0.87241990115635),(1.,0.866025403784439,1.,0.866025403784439,1.),(0.872419901156355,
0.755537797168512,0.872419901156355,0.755537797168512,0.872419901156355),
(1.,0.866025403784439,1.,0.866025403784439,1.)))
REPRESENTATION_ITEM('')
SURFACE()
);
#24=(
BOUNDED_SURFACE()
B_SPLINE_SURFACE(2,2,((#349,#350,#351,#352,#353),(#354,#355,#356,#357,#358),
(#359,#360,#361,#362,#363)),.UNSPECIFIED.,.F.,.F.,.F.)
B_SPLINE_SURFACE_WITH_KNOTS((3,3),(3,2,3),(-0.675131241758905,0.471861837279733),
(0.,1.0471975511966,2.0943951023932),.UNSPECIFIED.)
GEOMETRIC_REPRESENTATION_ITEM()
RATIONAL_B_SPLINE_SURFACE(((1.,0.866025403784439,1.,0.866025403784439,1.),
(0.840008987776239,0.727469122821475,0.840008987776239,0.727469122821475,
0.840008987776239),(1.,0.866025403784439,1.,0.866025403784439,1.)))
REPRESENTATION_ITEM('')
SURFACE()
);
#25=(
BOUNDED_SURFACE()
B_SPLINE_SURFACE(2,2,((#365,#366,#367,#368,#369),(#370,#371,#372,#373,#374),
(#375,#376,#377,#378,#379),(#380,#381,#382,#383,#384),(#385,#386,#387,#388,
#389)),.UNSPECIFIED.,.F.,.F.,.F.)
B_SPLINE_SURFACE_WITH_KNOTS((3,2,3),(3,2,3),(-1.5707963267949,-0.5494672447579,
0.471861837279096),(0.,1.0471975511966,2.0943951023932),.UNSPECIFIED.)
GEOMETRIC_REPRESENTATION_ITEM()
RATIONAL_B_SPLINE_SURFACE(((1.,0.866025403784439,1.,0.866025403784439,1.),
(0.87241990115635,0.755537797168508,0.87241990115635,0.755537797168508,
0.87241990115635),(1.,0.866025403784439,1.,0.866025403784439,1.),(0.872419901156355,
0.755537797168512,0.872419901156355,0.755537797168512,0.872419901156355),
(1.,0.866025403784439,1.,0.866025403784439,1.)))
REPRESENTATION_ITEM('')
SURFACE()
);
#26=(
BOUNDED_SURFACE()
B_SPLINE_SURFACE(2,2,((#391,#392,#393,#394,#395),(#396,#397,#398,#399,#400),
(#401,#402,#403,#404,#405)),.UNSPECIFIED.,.F.,.F.,.F.)
B_SPLINE_SURFACE_WITH_KNOTS((3,3),(3,2,3),(-0.675131241758905,0.471861837279733),
(0.,1.0471975511966,2.0943951023932),.UNSPECIFIED.)
GEOMETRIC_REPRESENTATION_ITEM()
RATIONAL_B_SPLINE_SURFACE(((1.,0.866025403784439,1.,0.866025403784439,1.),
(0.840008987776239,0.727469122821475,0.840008987776239,0.727469122821475,
0.840008987776239),(1.,0.866025403784439,1.,0.866025403784439,1.)))
REPRESENTATION_ITEM('')
SURFACE()
);
#27=(
BOUNDED_SURFACE()
B_SPLINE_SURFACE(2,2,((#406,#407,#408,#409,#410),(#411,#412,#413,#414,#415),
(#416,#417,#418,#419,#420),(#421,#422,#423,#424,#425),(#426,#427,#428,#429,
#430)),.UNSPECIFIED.,.F.,.F.,.F.)
B_SPLINE_SURFACE_WITH_KNOTS((3,2,3),(3,2,3),(-1.5707963267949,-0.5494672447579,
0.471861837279096),(0.,1.0471975511966,2.0943951023932),.UNSPECIFIED.)
GEOMETRIC_REPRESENTATION_ITEM()
RATIONAL_B_SPLINE_SURFACE(((1.,0.866025403784439,1.,0.866025403784439,1.),
(0.87241990115635,0.755537797168508,0.87241990115635,0.755537797168508,
0.87241990115635),(1.,0.866025403784439,1.,0.866025403784439,1.),(0.872419901156355,
0.755537797168512,0.872419901156355,0.755537797168512,0.872419901156355),
(1.,0.866025403784439,1.,0.866025403784439,1.)))
REPRESENTATION_ITEM('')
SURFACE()
);
#28=TOROIDAL_SURFACE('',#186,41.8148372667224,8.24137585629316);
#29=TOROIDAL_SURFACE('',#196,41.5273955059965,8.55594311665896);
#30=FACE_OUTER_BOUND('',#40,.T.);
#31=FACE_OUTER_BOUND('',#41,.T.);
#32=FACE_OUTER_BOUND('',#42,.T.);
#33=FACE_OUTER_BOUND('',#43,.T.);
#34=FACE_OUTER_BOUND('',#44,.T.);
#35=FACE_OUTER_BOUND('',#45,.T.);
#36=FACE_OUTER_BOUND('',#46,.T.);
#37=FACE_OUTER_BOUND('',#47,.T.);
#38=FACE_OUTER_BOUND('',#48,.T.);
#39=FACE_OUTER_BOUND('',#49,.T.);
#40=EDGE_LOOP('',(#109,#110,#111,#112,#113));
#41=EDGE_LOOP('',(#114,#115,#116,#117,#118,#119,#120,#121));
#42=EDGE_LOOP('',(#122,#123,#124,#125));
#43=EDGE_LOOP('',(#126));
#44=EDGE_LOOP('',(#127,#128,#129,#130,#131,#132,#133,#134,#135,#136));
#45=EDGE_LOOP('',(#137,#138,#139));
#46=EDGE_LOOP('',(#140,#141,#142,#143,#144,#145));
#47=EDGE_LOOP('',(#146,#147,#148,#149));
#48=EDGE_LOOP('',(#150,#151,#152,#153));
#49=EDGE_LOOP('',(#154,#155,#156));
#50=LINE('',#272,#51);
#51=VECTOR('',#215,32.5);
#52=CIRCLE('',#183,39.9999999999999);
#53=CIRCLE('',#184,24.9999999999999);
#54=CIRCLE('',#185,39.9999999999999);
#55=CIRCLE('',#187,44.5361771415094);
#56=CIRCLE('',#188,44.5361771415094);
#57=CIRCLE('',#189,44.5361771415094);
#58=CIRCLE('',#190,8.24137585629316);
#59=CIRCLE('',#191,44.5361771415094);
#60=CIRCLE('',#194,39.0312465893047);
#61=CIRCLE('',#197,44.5361771415247);
#62=CIRCLE('',#198,44.5361771415247);
#63=CIRCLE('',#199,44.5361771415247);
#64=CIRCLE('',#200,8.55594311665896);
#65=CIRCLE('',#201,39.0312465893047);
#66=CIRCLE('',#202,39.0312465893047);
#67=CIRCLE('',#203,39.0312465893047);
#68=CIRCLE('',#204,44.5361771415247);
#69=VERTEX_POINT('',#268);
#70=VERTEX_POINT('',#269);
#71=VERTEX_POINT('',#271);
#72=VERTEX_POINT('',#276);
#73=VERTEX_POINT('',#277);
#74=VERTEX_POINT('',#279);
#75=VERTEX_POINT('',#281);
#76=VERTEX_POINT('',#300);
#77=VERTEX_POINT('',#302);
#78=VERTEX_POINT('',#307);
#79=VERTEX_POINT('',#308);
#80=VERTEX_POINT('',#310);
#81=VERTEX_POINT('',#312);
#82=VERTEX_POINT('',#314);
#83=VERTEX_POINT('',#317);
#84=VERTEX_POINT('',#346);
#85=EDGE_CURVE('',#69,#70,#52,.T.);
#86=EDGE_CURVE('',#69,#71,#50,.T.);
#87=EDGE_CURVE('',#71,#71,#53,.T.);
#88=EDGE_CURVE('',#70,#69,#54,.T.);
#89=EDGE_CURVE('',#72,#73,#55,.T.);
#90=EDGE_CURVE('',#74,#72,#56,.T.);
#91=EDGE_CURVE('',#75,#74,#57,.T.);
#92=EDGE_CURVE('',#75,#70,#58,.T.);
#93=EDGE_CURVE('',#73,#75,#59,.T.);
#94=EDGE_CURVE('',#76,#74,#16,.T.);
#95=EDGE_CURVE('',#77,#72,#17,.T.);
#96=EDGE_CURVE('',#76,#77,#60,.T.);
#97=EDGE_CURVE('',#78,#79,#61,.T.);
#98=EDGE_CURVE('',#80,#78,#62,.T.);
#99=EDGE_CURVE('',#81,#80,#63,.T.);
#100=EDGE_CURVE('',#81,#82,#64,.T.);
#101=EDGE_CURVE('',#82,#76,#65,.T.);
#102=EDGE_CURVE('',#77,#83,#66,.T.);
#103=EDGE_CURVE('',#83,#82,#67,.T.);
#104=EDGE_CURVE('',#79,#81,#68,.T.);
#105=EDGE_CURVE('',#84,#80,#18,.T.);
#106=EDGE_CURVE('',#84,#78,#19,.T.);
#107=EDGE_CURVE('',#83,#73,#20,.T.);
#108=EDGE_CURVE('',#84,#79,#21,.T.);
#109=ORIENTED_EDGE('',*,*,#85,.F.);
#110=ORIENTED_EDGE('',*,*,#86,.T.);
#111=ORIENTED_EDGE('',*,*,#87,.T.);
#112=ORIENTED_EDGE('',*,*,#86,.F.);
#113=ORIENTED_EDGE('',*,*,#88,.F.);
#114=ORIENTED_EDGE('',*,*,#89,.F.);
#115=ORIENTED_EDGE('',*,*,#90,.F.);
#116=ORIENTED_EDGE('',*,*,#91,.F.);
#117=ORIENTED_EDGE('',*,*,#92,.T.);
#118=ORIENTED_EDGE('',*,*,#88,.T.);
#119=ORIENTED_EDGE('',*,*,#85,.T.);
#120=ORIENTED_EDGE('',*,*,#92,.F.);
#121=ORIENTED_EDGE('',*,*,#93,.F.);
#122=ORIENTED_EDGE('',*,*,#94,.T.);
#123=ORIENTED_EDGE('',*,*,#90,.T.);
#124=ORIENTED_EDGE('',*,*,#95,.F.);
#125=ORIENTED_EDGE('',*,*,#96,.F.);
#126=ORIENTED_EDGE('',*,*,#87,.F.);
#127=ORIENTED_EDGE('',*,*,#97,.F.);
#128=ORIENTED_EDGE('',*,*,#98,.F.);
#129=ORIENTED_EDGE('',*,*,#99,.F.);
#130=ORIENTED_EDGE('',*,*,#100,.T.);
#131=ORIENTED_EDGE('',*,*,#101,.T.);
#132=ORIENTED_EDGE('',*,*,#96,.T.);
#133=ORIENTED_EDGE('',*,*,#102,.T.);
#134=ORIENTED_EDGE('',*,*,#103,.T.);
#135=ORIENTED_EDGE('',*,*,#100,.F.);
#136=ORIENTED_EDGE('',*,*,#104,.F.);
#137=ORIENTED_EDGE('',*,*,#105,.T.);
#138=ORIENTED_EDGE('',*,*,#98,.T.);
#139=ORIENTED_EDGE('',*,*,#106,.F.);
#140=ORIENTED_EDGE('',*,*,#107,.T.);
#141=ORIENTED_EDGE('',*,*,#93,.T.);
#142=ORIENTED_EDGE('',*,*,#91,.T.);
#143=ORIENTED_EDGE('',*,*,#94,.F.);
#144=ORIENTED_EDGE('',*,*,#101,.F.);
#145=ORIENTED_EDGE('',*,*,#103,.F.);
#146=ORIENTED_EDGE('',*,*,#108,.T.);
#147=ORIENTED_EDGE('',*,*,#104,.T.);
#148=ORIENTED_EDGE('',*,*,#99,.T.);
#149=ORIENTED_EDGE('',*,*,#105,.F.);
#150=ORIENTED_EDGE('',*,*,#95,.T.);
#151=ORIENTED_EDGE('',*,*,#89,.T.);
#152=ORIENTED_EDGE('',*,*,#107,.F.);
#153=ORIENTED_EDGE('',*,*,#102,.F.);
#154=ORIENTED_EDGE('',*,*,#106,.T.);
#155=ORIENTED_EDGE('',*,*,#97,.T.);
#156=ORIENTED_EDGE('',*,*,#108,.F.);
#157=CONICAL_SURFACE('',#182,32.5,0.165148677414627);
#158=ADVANCED_FACE('',(#30),#157,.T.);
#159=ADVANCED_FACE('',(#31),#28,.T.);
#160=ADVANCED_FACE('',(#32),#22,.T.);
#161=ADVANCED_FACE('',(#33),#15,.T.);
#162=ADVANCED_FACE('',(#34),#29,.T.);
#163=ADVANCED_FACE('',(#35),#23,.T.);
#164=ADVANCED_FACE('',(#36),#24,.T.);
#165=ADVANCED_FACE('',(#37),#25,.T.);
#166=ADVANCED_FACE('',(#38),#26,.T.);
#167=ADVANCED_FACE('',(#39),#27,.T.);
#168=CLOSED_SHELL('',(#158,#159,#160,#161,#162,#163,#164,#165,#166,#167));
#169=DERIVED_UNIT_ELEMENT(#171,1.);
#170=DERIVED_UNIT_ELEMENT(#436,-3.);
#171=(
MASS_UNIT()
NAMED_UNIT(*)
SI_UNIT(.KILO.,.GRAM.)
);
#172=DERIVED_UNIT((#169,#170));
#173=MEASURE_REPRESENTATION_ITEM('density measure',
POSITIVE_RATIO_MEASURE(1060.),#172);
#174=PROPERTY_DEFINITION_REPRESENTATION(#179,#176);
#175=PROPERTY_DEFINITION_REPRESENTATION(#180,#177);
#176=REPRESENTATION('material name',(#178),#433);
#177=REPRESENTATION('density',(#173),#433);
#178=DESCRIPTIVE_REPRESENTATION_ITEM('ABS Plastic','ABS Plastic');
#179=PROPERTY_DEFINITION('material property','material name',#443);
#180=PROPERTY_DEFINITION('material property','density of part',#443);
#181=AXIS2_PLACEMENT_3D('',#266,#209,#210);
#182=AXIS2_PLACEMENT_3D('',#267,#211,#212);
#183=AXIS2_PLACEMENT_3D('',#270,#213,#214);
#184=AXIS2_PLACEMENT_3D('',#273,#216,#217);
#185=AXIS2_PLACEMENT_3D('',#274,#218,#219);
#186=AXIS2_PLACEMENT_3D('',#275,#220,#221);
#187=AXIS2_PLACEMENT_3D('',#278,#222,#223);
#188=AXIS2_PLACEMENT_3D('',#280,#224,#225);
#189=AXIS2_PLACEMENT_3D('',#282,#226,#227);
#190=AXIS2_PLACEMENT_3D('',#283,#228,#229);
#191=AXIS2_PLACEMENT_3D('',#284,#230,#231);
#192=AXIS2_PLACEMENT_3D('',#301,#232,#233);
#193=AXIS2_PLACEMENT_3D('',#303,#234,#235);
#194=AXIS2_PLACEMENT_3D('',#304,#236,#237);
#195=AXIS2_PLACEMENT_3D('',#305,#238,#239);
#196=AXIS2_PLACEMENT_3D('',#306,#240,#241);
#197=AXIS2_PLACEMENT_3D('',#309,#242,#243);
#198=AXIS2_PLACEMENT_3D('',#311,#244,#245);
#199=AXIS2_PLACEMENT_3D('',#313,#246,#247);
#200=AXIS2_PLACEMENT_3D('',#315,#248,#249);
#201=AXIS2_PLACEMENT_3D('',#316,#250,#251);
#202=AXIS2_PLACEMENT_3D('',#318,#252,#253);
#203=AXIS2_PLACEMENT_3D('',#319,#254,#255);
#204=AXIS2_PLACEMENT_3D('',#320,#256,#257);
#205=AXIS2_PLACEMENT_3D('',#347,#258,#259);
#206=AXIS2_PLACEMENT_3D('',#348,#260,#261);
#207=AXIS2_PLACEMENT_3D('',#364,#262,#263);
#208=AXIS2_PLACEMENT_3D('',#390,#264,#265);
#209=DIRECTION('axis',(0.,0.,1.));
#210=DIRECTION('refdir',(1.,0.,0.));
#211=DIRECTION('center_axis',(1.56621117205924E-16,4.74083091438742E-16,
1.));
#212=DIRECTION('ref_axis',(-0.866025403784439,0.5,-8.46762503427542E-16));
#213=DIRECTION('center_axis',(4.88878559293573E-16,8.46762503427543E-16,
1.));
#214=DIRECTION('ref_axis',(0.866025403784438,0.500000000000001,-8.46762503427543E-16));
#215=DIRECTION('',(-0.142373699362875,0.0821994936526784,-0.986393923832144));
#216=DIRECTION('center_axis',(-4.88878559293573E-16,8.46762503427542E-16,
1.));
#217=DIRECTION('ref_axis',(-0.866025403784439,0.5,-8.46762503427542E-16));
#218=DIRECTION('center_axis',(4.88878559293573E-16,8.46762503427543E-16,
1.));
#219=DIRECTION('ref_axis',(0.866025403784438,0.500000000000001,-8.46762503427543E-16));
#220=DIRECTION('center_axis',(1.56621117205924E-16,4.74083091438742E-16,
1.));
#221=DIRECTION('ref_axis',(-0.5,-0.866025403784439,2.83897918531675E-16));
#222=DIRECTION('center_axis',(0.,0.,1.));
#223=DIRECTION('ref_axis',(2.99142790212334E-16,-1.,0.));
#224=DIRECTION('center_axis',(-4.88878559293573E-16,8.46762503427542E-16,
1.));
#225=DIRECTION('ref_axis',(-0.866025403784439,0.5,-8.46762503427542E-16));
#226=DIRECTION('center_axis',(4.88878559293573E-16,8.46762503427543E-16,
1.));
#227=DIRECTION('ref_axis',(0.866025403784438,0.500000000000001,-8.46762503427543E-16));
#228=DIRECTION('center_axis',(-0.866025403784439,0.5,-1.01403679449941E-16));
#229=DIRECTION('ref_axis',(0.5,0.866025403784439,-3.54872398164593E-16));
#230=DIRECTION('center_axis',(4.88878559293573E-16,8.46762503427543E-16,
1.));
#231=DIRECTION('ref_axis',(0.866025403784438,0.500000000000001,-8.46762503427543E-16));
#232=DIRECTION('center_axis',(-0.5,-0.866025403784439,4.88878559293573E-16));
#233=DIRECTION('ref_axis',(-0.866025403784439,0.5,-4.91491135547492E-16));
#234=DIRECTION('center_axis',(1.,-5.55111512312578E-17,4.88878559293573E-16));
#235=DIRECTION('ref_axis',(-8.88178419700127E-17,-1.,1.20203387130759E-15));
#236=DIRECTION('center_axis',(-4.88878559293573E-16,8.46762503427542E-16,
1.));
#237=DIRECTION('ref_axis',(-0.866025403784439,0.5,-8.46762503427542E-16));
#238=DIRECTION('center_axis',(-1.56621117205924E-16,-4.74083091438742E-16,
-1.));
#239=DIRECTION('ref_axis',(0.5,0.866025403784439,-4.88878559293573E-16));
#240=DIRECTION('center_axis',(1.56621117205924E-16,4.74083091438742E-16,
1.));
#241=DIRECTION('ref_axis',(-0.5,-0.866025403784439,5.67488314717648E-16));
#242=DIRECTION('center_axis',(-4.60560454547112E-16,7.97714107232615E-16,
1.));
#243=DIRECTION('ref_axis',(-9.97142634040769E-16,-1.,7.97714107232615E-16));
#244=DIRECTION('center_axis',(4.32242349800651E-16,8.46762503427542E-16,
1.));
#245=DIRECTION('ref_axis',(-0.866025403784438,0.500000000000001,-4.90483961949278E-17));
#246=DIRECTION('center_axis',(2.8318104746461E-17,4.90483961949284E-17,
1.));
#247=DIRECTION('ref_axis',(0.866025403784439,0.5,-4.90483961949269E-17));
#248=DIRECTION('center_axis',(-0.866025403784439,0.5,-1.01403679449941E-16));
#249=DIRECTION('ref_axis',(0.5,0.866025403784439,-3.5468019669853E-16));
#250=DIRECTION('center_axis',(4.88878559293573E-16,8.46762503427543E-16,
1.));
#251=DIRECTION('ref_axis',(0.866025403784438,0.500000000000001,-8.46762503427543E-16));
#252=DIRECTION('center_axis',(0.,0.,1.));
#253=DIRECTION('ref_axis',(1.13777869951956E-16,-1.,0.));
#254=DIRECTION('center_axis',(4.88878559293573E-16,8.46762503427543E-16,
1.));
#255=DIRECTION('ref_axis',(0.866025403784438,0.500000000000001,-8.46762503427543E-16));
#256=DIRECTION('center_axis',(2.8318104746461E-17,4.90483961949284E-17,
1.));
#257=DIRECTION('ref_axis',(0.866025403784439,0.5,-4.90483961949269E-17));
#258=DIRECTION('center_axis',(-0.5,-0.866025403784439,4.88878559293573E-16));
#259=DIRECTION('ref_axis',(-0.866025403784439,0.5,4.85505126122645E-16));
#260=DIRECTION('center_axis',(1.,-6.72053833109427E-31,-3.04795972099909E-16));
#261=DIRECTION('ref_axis',(-2.03281190588342E-31,-1.,1.26257372427978E-15));
#262=DIRECTION('center_axis',(-0.5,0.866025403784438,-4.88878559293573E-16));
#263=DIRECTION('ref_axis',(0.866025403784438,0.5,-4.91491135547492E-16));
#264=DIRECTION('center_axis',(-0.5,0.866025403784438,-4.88878559293573E-16));
#265=DIRECTION('ref_axis',(0.866025403784438,0.5,4.85505126122645E-16));
#266=CARTESIAN_POINT('',(0.,0.,0.));
#267=CARTESIAN_POINT('Origin',(-4.8268409194833E-14,5.32706541448181E-14,
45.));
#268=CARTESIAN_POINT('',(34.6410161513775,-19.9999999999999,90.));
#269=CARTESIAN_POINT('',(20.,34.6410161513776,90.));
#270=CARTESIAN_POINT('Origin',(9.81395089180281E-14,1.02338721600591E-13,
90.));
#271=CARTESIAN_POINT('',(21.6506350946109,-12.4999999999999,1.77635683940025E-14));
#272=CARTESIAN_POINT('',(28.1458256229942,-16.2499999999999,45.));
#273=CARTESIAN_POINT('Origin',(-5.16225091694895E-14,3.49321700622715E-14,
-5.4816389681985E-29));
#274=CARTESIAN_POINT('Origin',(9.81395089180281E-14,1.02338721600591E-13,
90.));
#275=CARTESIAN_POINT('Origin',(-3.99613708422858E-14,7.84155802769554E-14,
98.0390697036415));
#276=CARTESIAN_POINT('',(-1.11684283604096E-13,-44.5361771415093,105.818181818182));
#277=CARTESIAN_POINT('',(38.569460791991,22.2680885707548,105.818181818182));
#278=CARTESIAN_POINT('Origin',(-1.33226762955019E-14,-5.77315972805081E-14,
105.818181818182));
#279=CARTESIAN_POINT('',(-38.5694607919911,22.2680885707548,105.818181818182));
#280=CARTESIAN_POINT('Origin',(-9.50679319725598E-14,1.3000644330307E-13,
105.818181818182));
#281=CARTESIAN_POINT('',(22.2680885707547,38.5694607919911,105.818181818182));
#282=CARTESIAN_POINT('Origin',(1.08390608268062E-13,1.06930891066467E-13,
105.818181818182));
#283=CARTESIAN_POINT('Origin',(20.9074186333611,36.2127113280939,98.0390697036415));
#284=CARTESIAN_POINT('Origin',(1.08390608268062E-13,1.06930891066467E-13,
105.818181818182));
#285=CARTESIAN_POINT('Ctrl Pts',(-33.8020510877127,19.5156232946525,148.999990907971));
#286=CARTESIAN_POINT('Ctrl Pts',(-45.0694014502836,1.01742698770161E-13,
148.999990907971));
#287=CARTESIAN_POINT('Ctrl Pts',(-33.8020510877127,-19.5156232946523,148.999990907971));
#288=CARTESIAN_POINT('Ctrl Pts',(-22.5347007251418,-39.0312465893047,148.999990907971));
#289=CARTESIAN_POINT('Ctrl Pts',(-3.06544259540885E-14,-39.0312465893047,
148.999990907971));
#290=CARTESIAN_POINT('Ctrl Pts',(-51.2825702896564,29.6080057614691,128.831368213739));
#291=CARTESIAN_POINT('Ctrl Pts',(-68.3767603862086,8.68851113761577E-14,
128.831368213739));
#292=CARTESIAN_POINT('Ctrl Pts',(-51.2825702896564,-29.6080057614689,128.831368213739));
#293=CARTESIAN_POINT('Ctrl Pts',(-34.1883801931043,-59.216011522938,128.831368213739));
#294=CARTESIAN_POINT('Ctrl Pts',(-3.63375410931486E-14,-59.216011522938,
128.831368213739));
#295=CARTESIAN_POINT('Ctrl Pts',(-38.5694607919917,22.2680885707552,105.818181818181));
#296=CARTESIAN_POINT('Ctrl Pts',(-51.4259477226556,7.62801922490122E-14,
105.818181818181));
#297=CARTESIAN_POINT('Ctrl Pts',(-38.5694607919917,-22.268088570755,105.818181818181));
#298=CARTESIAN_POINT('Ctrl Pts',(-25.7129738613278,-44.5361771415102,105.818181818181));
#299=CARTESIAN_POINT('Ctrl Pts',(-4.06300100280863E-14,-44.5361771415102,
105.818181818181));
#300=CARTESIAN_POINT('',(-33.8020510877127,19.5156232946525,148.999990907971));
#301=CARTESIAN_POINT('Origin',(-3.58953409355644E-14,9.07232183684808E-14,
124.000000000004));
#302=CARTESIAN_POINT('',(-1.3164776171105E-13,-39.0312465893045,148.999990907971));
#303=CARTESIAN_POINT('Origin',(-1.15959131082149E-13,2.3087946461207E-13,
124.000000000004));
#304=CARTESIAN_POINT('Origin',(-1.2254244737295E-13,1.59989552349561E-13,
148.999990907971));
#305=CARTESIAN_POINT('Origin',(-21.650635094611,12.5,-2.11690625856886E-14));
#306=CARTESIAN_POINT('Origin',(-3.06980688252676E-14,1.06455061385909E-13,
157.183725177136));
#307=CARTESIAN_POINT('',(-3.63504837473994E-14,-44.5361771415246,165.193181818206));
#308=CARTESIAN_POINT('',(38.5694607920043,22.2680885707625,165.193181818206));
#309=CARTESIAN_POINT('Origin',(4.44089209850063E-14,4.44089209850063E-14,
165.193181818206));
#310=CARTESIAN_POINT('',(-38.5694607920043,22.2680885707625,165.193181818206));
#311=CARTESIAN_POINT('Origin',(-6.45046114972375E-14,7.92156779653706E-14,
165.193181818206));
#312=CARTESIAN_POINT('',(22.2680885707624,38.5694607920044,165.193181818206));
#313=CARTESIAN_POINT('Origin',(2.00956905122312E-14,1.56134185420713E-13,
165.193181818206));
#314=CARTESIAN_POINT('',(19.5156232946524,33.8020510877128,148.999990907971));
#315=CARTESIAN_POINT('Origin',(20.7636977529982,35.9637794611968,157.183725177136));
#316=CARTESIAN_POINT('Origin',(1.26983339471451E-13,1.52297701604027E-13,
148.999990907971));
#317=CARTESIAN_POINT('',(33.8020510877127,19.5156232946525,148.999990907971));
#318=CARTESIAN_POINT('Origin',(-4.44089209850063E-15,-5.99520433297585E-14,
148.999990907971));
#319=CARTESIAN_POINT('Origin',(1.26983339471451E-13,1.52297701604027E-13,
148.999990907971));
#320=CARTESIAN_POINT('Origin',(2.00956905122312E-14,1.56134185420713E-13,
165.193181818206));
#321=CARTESIAN_POINT('Ctrl Pts',(-2.65143809681228E-15,1.27627857967688E-13,
223.375000000004));
#322=CARTESIAN_POINT('Ctrl Pts',(3.24178834199218E-15,1.37835225580206E-13,
223.375000000004));
#323=CARTESIAN_POINT('Ctrl Pts',(-2.6514380968123E-15,1.48042593192723E-13,
223.375000000004));
#324=CARTESIAN_POINT('Ctrl Pts',(-8.54466453561675E-15,1.58249960805241E-13,
223.375000000004));
#325=CARTESIAN_POINT('Ctrl Pts',(-2.03311174132257E-14,1.58249960805241E-13,
223.375000000004));
#326=CARTESIAN_POINT('Ctrl Pts',(-24.2587357344714,14.0057876064972,223.375000000004));
#327=CARTESIAN_POINT('Ctrl Pts',(-32.3449809792953,1.35854869021123E-13,
223.375000000004));
#328=CARTESIAN_POINT('Ctrl Pts',(-24.2587357344714,-14.0057876064969,223.375000000004));
#329=CARTESIAN_POINT('Ctrl Pts',(-16.1724904896476,-28.011575212994,223.375000000004));
#330=CARTESIAN_POINT('Ctrl Pts',(-2.03854062121915E-14,-28.011575212994,
223.375000000004));
#331=CARTESIAN_POINT('Ctrl Pts',(-36.9274472937936,21.3200716355576,204.264318714697));
#332=CARTESIAN_POINT('Ctrl Pts',(-49.2365963917249,1.24113552792272E-13,
204.264318714697));
#333=CARTESIAN_POINT('Ctrl Pts',(-36.9274472937936,-21.3200716355573,204.264318714697));
#334=CARTESIAN_POINT('Ctrl Pts',(-24.6182981958624,-42.6401432711148,204.264318714697));
#335=CARTESIAN_POINT('Ctrl Pts',(-2.43652801738139E-14,-42.6401432711148,
204.264318714697));
#336=CARTESIAN_POINT('Ctrl Pts',(-49.5961588531159,28.634355664618,185.153637429391));
#337=CARTESIAN_POINT('Ctrl Pts',(-66.1282118041545,1.16813128661921E-13,
185.153637429391));
#338=CARTESIAN_POINT('Ctrl Pts',(-49.5961588531158,-28.6343556646177,185.153637429391));
#339=CARTESIAN_POINT('Ctrl Pts',(-33.0641059020772,-57.2687113292356,185.153637429391));
#340=CARTESIAN_POINT('Ctrl Pts',(-2.39042620369356E-14,-57.2687113292356,
185.153637429391));
#341=CARTESIAN_POINT('Ctrl Pts',(-38.5694607920043,22.2680885707625,165.193181818206));
#342=CARTESIAN_POINT('Ctrl Pts',(-51.4259477226724,1.0435225539754E-13,
165.193181818206));
#343=CARTESIAN_POINT('Ctrl Pts',(-38.5694607920043,-22.2680885707623,165.193181818206));
#344=CARTESIAN_POINT('Ctrl Pts',(-25.7129738613362,-44.5361771415246,165.193181818206));
#345=CARTESIAN_POINT('Ctrl Pts',(-3.19095916488988E-14,-44.5361771415246,
165.193181818206));
#346=CARTESIAN_POINT('',(-2.65143809681228E-15,1.27627857967688E-13,223.375000000004));
#347=CARTESIAN_POINT('Origin',(-2.65959621014626E-14,1.18871901922656E-13,
183.375000000004));
#348=CARTESIAN_POINT('Origin',(-3.25643221898218E-14,1.11096483540542E-13,
183.375000000004));
#349=CARTESIAN_POINT('Ctrl Pts',(33.8020510877127,19.5156232946525,148.999990907971));
#350=CARTESIAN_POINT('Ctrl Pts',(22.5347007251418,39.0312465893049,148.999990907971));
#351=CARTESIAN_POINT('Ctrl Pts',(1.73317496585867E-14,39.0312465893049,
148.999990907971));
#352=CARTESIAN_POINT('Ctrl Pts',(-22.5347007251418,39.0312465893049,148.999990907971));
#353=CARTESIAN_POINT('Ctrl Pts',(-33.8020510877127,19.5156232946525,148.999990907971));
#354=CARTESIAN_POINT('Ctrl Pts',(51.2825702896564,29.6080057614692,128.831368213739));
#355=CARTESIAN_POINT('Ctrl Pts',(34.1883801931043,59.2160115229382,128.831368213739));
#356=CARTESIAN_POINT('Ctrl Pts',(9.69218850214483E-15,59.2160115229382,
128.831368213739));
#357=CARTESIAN_POINT('Ctrl Pts',(-34.1883801931043,59.2160115229381,128.831368213739));
#358=CARTESIAN_POINT('Ctrl Pts',(-51.2825702896564,29.6080057614691,128.831368213739));
#359=CARTESIAN_POINT('Ctrl Pts',(38.5694607919917,22.2680885707552,105.818181818181));
#360=CARTESIAN_POINT('Ctrl Pts',(25.7129738613278,44.5361771415104,105.818181818181));
#361=CARTESIAN_POINT('Ctrl Pts',(2.28664416340838E-14,44.5361771415103,
105.818181818181));
#362=CARTESIAN_POINT('Ctrl Pts',(-25.7129738613278,44.5361771415103,105.818181818181));
#363=CARTESIAN_POINT('Ctrl Pts',(-38.5694607919917,22.2680885707552,105.818181818181));
#364=CARTESIAN_POINT('Origin',(3.58953409355643E-14,9.07232183684808E-14,
124.000000000004));
#365=CARTESIAN_POINT('Ctrl Pts',(2.65143809681225E-15,1.27627857967688E-13,
223.375000000004));
#366=CARTESIAN_POINT('Ctrl Pts',(8.54466453561672E-15,1.17420490355171E-13,
223.375000000004));
#367=CARTESIAN_POINT('Ctrl Pts',(2.03311174132256E-14,1.17420490355171E-13,
223.375000000004));
#368=CARTESIAN_POINT('Ctrl Pts',(3.21175702908346E-14,1.17420490355171E-13,
223.375000000004));
#369=CARTESIAN_POINT('Ctrl Pts',(3.8010796729639E-14,1.27627857967688E-13,
223.375000000004));
#370=CARTESIAN_POINT('Ctrl Pts',(24.2587357344714,14.0057876064972,223.375000000004));
#371=CARTESIAN_POINT('Ctrl Pts',(16.1724904896476,28.0115752129943,223.375000000004));
#372=CARTESIAN_POINT('Ctrl Pts',(9.28317596593989E-15,28.0115752129943,
223.375000000004));
#373=CARTESIAN_POINT('Ctrl Pts',(-16.1724904896476,28.0115752129943,223.375000000004));
#374=CARTESIAN_POINT('Ctrl Pts',(-24.2587357344714,14.0057876064972,223.375000000004));
#375=CARTESIAN_POINT('Ctrl Pts',(36.9274472937936,21.3200716355576,204.264318714697));
#376=CARTESIAN_POINT('Ctrl Pts',(24.6182981958624,42.6401432711151,204.264318714697));
#377=CARTESIAN_POINT('Ctrl Pts',(4.38126573056101E-15,42.6401432711151,
204.264318714697));
#378=CARTESIAN_POINT('Ctrl Pts',(-24.6182981958624,42.640143271115,204.264318714697));
#379=CARTESIAN_POINT('Ctrl Pts',(-36.9274472937936,21.3200716355576,204.264318714697));
#380=CARTESIAN_POINT('Ctrl Pts',(49.5961588531158,28.634355664618,185.153637429391));
#381=CARTESIAN_POINT('Ctrl Pts',(33.0641059020772,57.2687113292359,185.15363742939));
#382=CARTESIAN_POINT('Ctrl Pts',(1.69980154443248E-15,57.2687113292358,
185.153637429391));
#383=CARTESIAN_POINT('Ctrl Pts',(-33.0641059020772,57.2687113292358,185.15363742939));
#384=CARTESIAN_POINT('Ctrl Pts',(-49.5961588531158,28.634355664618,185.153637429391));
#385=CARTESIAN_POINT('Ctrl Pts',(38.5694607920043,22.2680885707625,165.193181818206));
#386=CARTESIAN_POINT('Ctrl Pts',(25.7129738613362,44.5361771415249,165.193181818206));
#387=CARTESIAN_POINT('Ctrl Pts',(1.19255772056459E-14,44.5361771415249,
165.193181818206));
#388=CARTESIAN_POINT('Ctrl Pts',(-25.7129738613362,44.5361771415249,165.193181818206));
#389=CARTESIAN_POINT('Ctrl Pts',(-38.5694607920042,22.2680885707625,165.193181818206));
#390=CARTESIAN_POINT('Origin',(2.65959621014626E-14,1.18871901922656E-13,
183.375000000004));
#391=CARTESIAN_POINT('Ctrl Pts',(0.,-39.0312465893047,148.999990907971));
#392=CARTESIAN_POINT('Ctrl Pts',(22.5347007251418,-39.0312465893048,148.999990907971));
#393=CARTESIAN_POINT('Ctrl Pts',(33.8020510877127,-19.5156232946524,148.999990907971));
#394=CARTESIAN_POINT('Ctrl Pts',(45.0694014502836,4.71846279356894E-14,
148.999990907971));
#395=CARTESIAN_POINT('Ctrl Pts',(33.8020510877127,19.5156232946524,148.999990907971));
#396=CARTESIAN_POINT('Ctrl Pts',(0.,-59.216011522938,128.831368213739));
#397=CARTESIAN_POINT('Ctrl Pts',(34.1883801931043,-59.216011522938,128.831368213739));
#398=CARTESIAN_POINT('Ctrl Pts',(51.2825702896564,-29.608005761469,128.831368213739));
#399=CARTESIAN_POINT('Ctrl Pts',(68.3767603862085,3.21517670430681E-14,
128.831368213739));
#400=CARTESIAN_POINT('Ctrl Pts',(51.2825702896564,29.6080057614691,128.831368213739));
#401=CARTESIAN_POINT('Ctrl Pts',(0.,-44.5361771415102,105.818181818181));
#402=CARTESIAN_POINT('Ctrl Pts',(25.7129738613278,-44.5361771415102,105.818181818181));
#403=CARTESIAN_POINT('Ctrl Pts',(38.5694607919917,-22.2680885707551,105.818181818181));
#404=CARTESIAN_POINT('Ctrl Pts',(51.4259477226556,1.49986854952982E-14,
105.818181818181));
#405=CARTESIAN_POINT('Ctrl Pts',(38.5694607919917,22.2680885707551,105.818181818181));
#406=CARTESIAN_POINT('Ctrl Pts',(0.,1.23035432470886E-13,223.375000000004));
#407=CARTESIAN_POINT('Ctrl Pts',(-1.17864528776089E-14,1.23035432470886E-13,
223.375000000004));
#408=CARTESIAN_POINT('Ctrl Pts',(-1.76796793164134E-14,1.12828064858368E-13,
223.375000000004));
#409=CARTESIAN_POINT('Ctrl Pts',(-2.35729057552179E-14,1.02620697245851E-13,
223.375000000004));
#410=CARTESIAN_POINT('Ctrl Pts',(-1.76796793164134E-14,9.2413329633333E-14,
223.375000000004));
#411=CARTESIAN_POINT('Ctrl Pts',(0.,-28.011575212994,223.375000000004));
#412=CARTESIAN_POINT('Ctrl Pts',(16.1724904896476,-28.011575212994,223.375000000004));
#413=CARTESIAN_POINT('Ctrl Pts',(24.2587357344714,-14.005787606497,223.375000000004));
#414=CARTESIAN_POINT('Ctrl Pts',(32.3449809792952,1.02620697245851E-13,
223.375000000004));
#415=CARTESIAN_POINT('Ctrl Pts',(24.2587357344714,14.0057876064972,223.375000000004));
#416=CARTESIAN_POINT('Ctrl Pts',(0.,-42.6401432711149,204.264318714697));
#417=CARTESIAN_POINT('Ctrl Pts',(24.6182981958624,-42.6401432711149,204.264318714697));
#418=CARTESIAN_POINT('Ctrl Pts',(36.9274472937936,-21.3200716355574,204.264318714697));
#419=CARTESIAN_POINT('Ctrl Pts',(49.2365963917248,8.83763823176234E-14,
204.264318714697));
#420=CARTESIAN_POINT('Ctrl Pts',(36.9274472937936,21.3200716355576,204.264318714697));
#421=CARTESIAN_POINT('Ctrl Pts',(0.,-57.2687113292356,185.153637429391));
#422=CARTESIAN_POINT('Ctrl Pts',(33.0641059020772,-57.2687113292357,185.153637429391));
#423=CARTESIAN_POINT('Ctrl Pts',(49.5961588531158,-28.6343556646178,185.153637429391));
#424=CARTESIAN_POINT('Ctrl Pts',(66.1282118041544,7.41320673893963E-14,
185.153637429391));
#425=CARTESIAN_POINT('Ctrl Pts',(49.5961588531158,28.6343556646179,185.153637429391));
#426=CARTESIAN_POINT('Ctrl Pts',(0.,-44.5361771415247,165.193181818206));
#427=CARTESIAN_POINT('Ctrl Pts',(25.7129738613362,-44.5361771415247,165.193181818206));
#428=CARTESIAN_POINT('Ctrl Pts',(38.5694607920043,-22.2680885707623,165.193181818206));
#429=CARTESIAN_POINT('Ctrl Pts',(51.4259477226723,5.92543656689864E-14,
165.193181818206));
#430=CARTESIAN_POINT('Ctrl Pts',(38.5694607920043,22.2680885707624,165.193181818206));
#431=UNCERTAINTY_MEASURE_WITH_UNIT(LENGTH_MEASURE(0.01),#435,
'DISTANCE_ACCURACY_VALUE',
'Maximum model space distance between geometric entities at asserted c
onnectivities');
#432=UNCERTAINTY_MEASURE_WITH_UNIT(LENGTH_MEASURE(0.01),#435,
'DISTANCE_ACCURACY_VALUE',
'Maximum model space distance between geometric entities at asserted c
onnectivities');
#433=(
GEOMETRIC_REPRESENTATION_CONTEXT(3)
GLOBAL_UNCERTAINTY_ASSIGNED_CONTEXT((#431))
GLOBAL_UNIT_ASSIGNED_CONTEXT((#435,#437,#438))
REPRESENTATION_CONTEXT('','3D')
);
#434=(
GEOMETRIC_REPRESENTATION_CONTEXT(3)
GLOBAL_UNCERTAINTY_ASSIGNED_CONTEXT((#432))
GLOBAL_UNIT_ASSIGNED_CONTEXT((#435,#437,#438))
REPRESENTATION_CONTEXT('','3D')
);
#435=(
LENGTH_UNIT()
NAMED_UNIT(*)
SI_UNIT(.MILLI.,.METRE.)
);
#436=(
LENGTH_UNIT()
NAMED_UNIT(*)
SI_UNIT($,.METRE.)
);
#437=(
NAMED_UNIT(*)
PLANE_ANGLE_UNIT()
SI_UNIT($,.RADIAN.)
);
#438=(
NAMED_UNIT(*)
SI_UNIT($,.STERADIAN.)
SOLID_ANGLE_UNIT()
);
#439=SHAPE_DEFINITION_REPRESENTATION(#440,#441);
#440=PRODUCT_DEFINITION_SHAPE('',$,#443);
#441=SHAPE_REPRESENTATION('',(#181),#433);
#442=PRODUCT_DEFINITION_CONTEXT('part definition',#447,'design');
#443=PRODUCT_DEFINITION('Configuration 1','my_ice_cream2 v2',#444,#442);
#444=PRODUCT_DEFINITION_FORMATION('',$,#449);
#445=PRODUCT_RELATED_PRODUCT_CATEGORY('my_ice_cream2 v2',
'my_ice_cream2 v2',(#449));
#446=APPLICATION_PROTOCOL_DEFINITION('international standard',
'automotive_design',2009,#447);
#447=APPLICATION_CONTEXT(
'Core Data for Automotive Mechanical Design Process');
#448=PRODUCT_CONTEXT('part definition',#447,'mechanical');
#449=PRODUCT('Configuration 1','my_ice_cream2 v2',$,(#448));
#450=PRESENTATION_STYLE_ASSIGNMENT((#451));
#451=SURFACE_STYLE_USAGE(.BOTH.,#452);
#452=SURFACE_SIDE_STYLE('',(#453));
#453=SURFACE_STYLE_FILL_AREA(#454);
#454=FILL_AREA_STYLE('ABS (White)',(#455));
#455=FILL_AREA_STYLE_COLOUR('ABS (White)',#456);
#456=COLOUR_RGB('ABS (White)',0.964705882352941,0.964705882352941,0.952941176470588);
ENDSEC;
END-ISO-10303-21;
