ISO-10303-21;
HEADER;
/* Generated by software containing ST-Developer
 * from STEP Tools, Inc. (www.steptools.com) 
 */

FILE_DESCRIPTION(
/* description */ (''),
/* implementation_level */ '2;1');

FILE_NAME(
/* name */ 'WZ_nanodot.step',
/* time_stamp */ '2026-08-04T16:04:25-07:00',
/* author */ (''),
/* organization */ (''),
/* preprocessor_version */ 'ST-DEVELOPER v20.1',
/* originating_system */ 'Autodesk Translation Framework v15.8.0.0',
/* authorisation */ '');

FILE_SCHEMA (('AUTOMOTIVE_DESIGN { 1 0 10303 214 3 1 1 }'));
ENDSEC;

DATA;
#10=MECHANICAL_DESIGN_GEOMETRIC_PRESENTATION_REPRESENTATION('',(#13),#249);
#11=SHAPE_REPRESENTATION_RELATIONSHIP('SRR','None',#256,#12);
#12=ADVANCED_BREP_SHAPE_REPRESENTATION('',(#14),#248);
#13=STYLED_ITEM('',(#265),#14);
#14=MANIFOLD_SOLID_BREP('Body8',#149);
#15=FACE_OUTER_BOUND('',#23,.T.);
#16=FACE_OUTER_BOUND('',#24,.T.);
#17=FACE_OUTER_BOUND('',#25,.T.);
#18=FACE_OUTER_BOUND('',#26,.T.);
#19=FACE_OUTER_BOUND('',#27,.T.);
#20=FACE_OUTER_BOUND('',#28,.T.);
#21=FACE_OUTER_BOUND('',#29,.T.);
#22=FACE_OUTER_BOUND('',#30,.T.);
#23=EDGE_LOOP('',(#97,#98,#99,#100,#101,#102));
#24=EDGE_LOOP('',(#103,#104,#105,#106,#107,#108));
#25=EDGE_LOOP('',(#109,#110,#111,#112));
#26=EDGE_LOOP('',(#113,#114,#115,#116));
#27=EDGE_LOOP('',(#117,#118,#119,#120));
#28=EDGE_LOOP('',(#121,#122,#123,#124));
#29=EDGE_LOOP('',(#125,#126,#127,#128));
#30=EDGE_LOOP('',(#129,#130,#131,#132));
#31=LINE('',#211,#49);
#32=LINE('',#213,#50);
#33=LINE('',#215,#51);
#34=LINE('',#217,#52);
#35=LINE('',#219,#53);
#36=LINE('',#220,#54);
#37=LINE('',#224,#55);
#38=LINE('',#226,#56);
#39=LINE('',#228,#57);
#40=LINE('',#230,#58);
#41=LINE('',#232,#59);
#42=LINE('',#233,#60);
#43=LINE('',#235,#61);
#44=LINE('',#236,#62);
#45=LINE('',#238,#63);
#46=LINE('',#240,#64);
#47=LINE('',#242,#65);
#48=LINE('',#244,#66);
#49=VECTOR('',#175,10.);
#50=VECTOR('',#176,10.);
#51=VECTOR('',#177,10.);
#52=VECTOR('',#178,10.);
#53=VECTOR('',#179,10.);
#54=VECTOR('',#180,10.);
#55=VECTOR('',#183,10.);
#56=VECTOR('',#184,10.);
#57=VECTOR('',#185,10.);
#58=VECTOR('',#186,10.);
#59=VECTOR('',#187,10.);
#60=VECTOR('',#188,10.);
#61=VECTOR('',#191,10.);
#62=VECTOR('',#192,10.);
#63=VECTOR('',#195,10.);
#64=VECTOR('',#198,10.);
#65=VECTOR('',#201,10.);
#66=VECTOR('',#204,10.);
#67=VERTEX_POINT('',#209);
#68=VERTEX_POINT('',#210);
#69=VERTEX_POINT('',#212);
#70=VERTEX_POINT('',#214);
#71=VERTEX_POINT('',#216);
#72=VERTEX_POINT('',#218);
#73=VERTEX_POINT('',#222);
#74=VERTEX_POINT('',#223);
#75=VERTEX_POINT('',#225);
#76=VERTEX_POINT('',#227);
#77=VERTEX_POINT('',#229);
#78=VERTEX_POINT('',#231);
#79=EDGE_CURVE('',#67,#68,#31,.T.);
#80=EDGE_CURVE('',#68,#69,#32,.T.);
#81=EDGE_CURVE('',#69,#70,#33,.T.);
#82=EDGE_CURVE('',#70,#71,#34,.T.);
#83=EDGE_CURVE('',#71,#72,#35,.T.);
#84=EDGE_CURVE('',#72,#67,#36,.T.);
#85=EDGE_CURVE('',#73,#74,#37,.T.);
#86=EDGE_CURVE('',#75,#73,#38,.T.);
#87=EDGE_CURVE('',#76,#75,#39,.T.);
#88=EDGE_CURVE('',#77,#76,#40,.T.);
#89=EDGE_CURVE('',#78,#77,#41,.T.);
#90=EDGE_CURVE('',#74,#78,#42,.T.);
#91=EDGE_CURVE('',#74,#68,#43,.T.);
#92=EDGE_CURVE('',#73,#67,#44,.T.);
#93=EDGE_CURVE('',#78,#69,#45,.T.);
#94=EDGE_CURVE('',#77,#70,#46,.T.);
#95=EDGE_CURVE('',#76,#71,#47,.T.);
#96=EDGE_CURVE('',#75,#72,#48,.T.);
#97=ORIENTED_EDGE('',*,*,#79,.T.);
#98=ORIENTED_EDGE('',*,*,#80,.T.);
#99=ORIENTED_EDGE('',*,*,#81,.T.);
#100=ORIENTED_EDGE('',*,*,#82,.T.);
#101=ORIENTED_EDGE('',*,*,#83,.T.);
#102=ORIENTED_EDGE('',*,*,#84,.T.);
#103=ORIENTED_EDGE('',*,*,#85,.F.);
#104=ORIENTED_EDGE('',*,*,#86,.F.);
#105=ORIENTED_EDGE('',*,*,#87,.F.);
#106=ORIENTED_EDGE('',*,*,#88,.F.);
#107=ORIENTED_EDGE('',*,*,#89,.F.);
#108=ORIENTED_EDGE('',*,*,#90,.F.);
#109=ORIENTED_EDGE('',*,*,#85,.T.);
#110=ORIENTED_EDGE('',*,*,#91,.T.);
#111=ORIENTED_EDGE('',*,*,#79,.F.);
#112=ORIENTED_EDGE('',*,*,#92,.F.);
#113=ORIENTED_EDGE('',*,*,#90,.T.);
#114=ORIENTED_EDGE('',*,*,#93,.T.);
#115=ORIENTED_EDGE('',*,*,#80,.F.);
#116=ORIENTED_EDGE('',*,*,#91,.F.);
#117=ORIENTED_EDGE('',*,*,#89,.T.);
#118=ORIENTED_EDGE('',*,*,#94,.T.);
#119=ORIENTED_EDGE('',*,*,#81,.F.);
#120=ORIENTED_EDGE('',*,*,#93,.F.);
#121=ORIENTED_EDGE('',*,*,#88,.T.);
#122=ORIENTED_EDGE('',*,*,#95,.T.);
#123=ORIENTED_EDGE('',*,*,#82,.F.);
#124=ORIENTED_EDGE('',*,*,#94,.F.);
#125=ORIENTED_EDGE('',*,*,#87,.T.);
#126=ORIENTED_EDGE('',*,*,#96,.T.);
#127=ORIENTED_EDGE('',*,*,#83,.F.);
#128=ORIENTED_EDGE('',*,*,#95,.F.);
#129=ORIENTED_EDGE('',*,*,#86,.T.);
#130=ORIENTED_EDGE('',*,*,#92,.T.);
#131=ORIENTED_EDGE('',*,*,#84,.F.);
#132=ORIENTED_EDGE('',*,*,#96,.F.);
#133=PLANE('',#163);
#134=PLANE('',#164);
#135=PLANE('',#165);
#136=PLANE('',#166);
#137=PLANE('',#167);
#138=PLANE('',#168);
#139=PLANE('',#169);
#140=PLANE('',#170);
#141=ADVANCED_FACE('',(#15),#133,.F.);
#142=ADVANCED_FACE('',(#16),#134,.T.);
#143=ADVANCED_FACE('',(#17),#135,.T.);
#144=ADVANCED_FACE('',(#18),#136,.T.);
#145=ADVANCED_FACE('',(#19),#137,.T.);
#146=ADVANCED_FACE('',(#20),#138,.T.);
#147=ADVANCED_FACE('',(#21),#139,.T.);
#148=ADVANCED_FACE('',(#22),#140,.T.);
#149=CLOSED_SHELL('',(#141,#142,#143,#144,#145,#146,#147,#148));
#150=DERIVED_UNIT_ELEMENT(#152,1.);
#151=DERIVED_UNIT_ELEMENT(#251,-3.);
#152=(
MASS_UNIT()
NAMED_UNIT(*)
SI_UNIT(.KILO.,.GRAM.)
);
#153=DERIVED_UNIT((#150,#151));
#154=MEASURE_REPRESENTATION_ITEM('density measure',
POSITIVE_RATIO_MEASURE(7850.),#153);
#155=PROPERTY_DEFINITION_REPRESENTATION(#160,#157);
#156=PROPERTY_DEFINITION_REPRESENTATION(#161,#158);
#157=REPRESENTATION('material name',(#159),#248);
#158=REPRESENTATION('density',(#154),#248);
#159=DESCRIPTIVE_REPRESENTATION_ITEM('Steel','Steel');
#160=PROPERTY_DEFINITION('material property','material name',#258);
#161=PROPERTY_DEFINITION('material property','density of part',#258);
#162=AXIS2_PLACEMENT_3D('',#207,#171,#172);
#163=AXIS2_PLACEMENT_3D('',#208,#173,#174);
#164=AXIS2_PLACEMENT_3D('',#221,#181,#182);
#165=AXIS2_PLACEMENT_3D('',#234,#189,#190);
#166=AXIS2_PLACEMENT_3D('',#237,#193,#194);
#167=AXIS2_PLACEMENT_3D('',#239,#196,#197);
#168=AXIS2_PLACEMENT_3D('',#241,#199,#200);
#169=AXIS2_PLACEMENT_3D('',#243,#202,#203);
#170=AXIS2_PLACEMENT_3D('',#245,#205,#206);
#171=DIRECTION('axis',(0.,0.,1.));
#172=DIRECTION('refdir',(1.,0.,0.));
#173=DIRECTION('center_axis',(0.,2.22044604925031E-16,1.));
#174=DIRECTION('ref_axis',(0.,-1.,2.22044604925031E-16));
#175=DIRECTION('',(7.10542735760101E-16,1.,-2.22044604925031E-16));
#176=DIRECTION('',(0.866025403784439,0.5,-1.11022302462516E-16));
#177=DIRECTION('',(0.866025403784439,-0.5,1.11022302462516E-16));
#178=DIRECTION('',(0.,-1.,2.22044604925031E-16));
#179=DIRECTION('',(-0.866025403784439,-0.499999999999999,1.11022302462516E-16));
#180=DIRECTION('',(-0.866025403784439,0.5,-1.11022302462516E-16));
#181=DIRECTION('center_axis',(0.,2.22044604925031E-16,1.));
#182=DIRECTION('ref_axis',(0.,-1.,2.22044604925031E-16));
#183=DIRECTION('',(0.,1.,-2.22044604925031E-16));
#184=DIRECTION('',(-0.866025403784438,0.500000000000001,-1.11022302462516E-16));
#185=DIRECTION('',(-0.866025403784439,-0.5,1.11022302462516E-16));
#186=DIRECTION('',(0.,-1.,2.22044604925031E-16));
#187=DIRECTION('',(0.866025403784439,-0.499999999999999,1.11022302462515E-16));
#188=DIRECTION('',(0.866025403784444,0.49999999999999,-1.11022302462513E-16));
#189=DIRECTION('center_axis',(-0.500000000000001,5.80156062955725E-16,0.866025403784438));
#190=DIRECTION('ref_axis',(-7.75719588634736E-16,-1.,2.22044604925031E-16));
#191=DIRECTION('',(-0.774596669241483,0.447213595499957,-0.447213595499959));
#192=DIRECTION('',(-0.774596669241483,-0.447213595499959,-0.447213595499958));
#193=DIRECTION('center_axis',(-0.250000000000001,0.43301270189222,0.866025403784438));
#194=DIRECTION('ref_axis',(-0.866025403784438,-0.500000000000001,1.11022302462516E-16));
#195=DIRECTION('',(9.18537636701491E-16,0.894427190999916,-0.447213595499958));
#196=DIRECTION('center_axis',(0.25,0.433012701892219,0.866025403784439));
#197=DIRECTION('ref_axis',(0.,-0.894427190999916,0.447213595499958));
#198=DIRECTION('',(0.774596669241484,0.447213595499957,-0.447213595499958));
#199=DIRECTION('center_axis',(0.499999999999999,1.92296268638356E-16,0.866025403784439));
#200=DIRECTION('ref_axis',(0.,-1.,2.22044604925031E-16));
#201=DIRECTION('',(0.774596669241483,-0.44721359549996,-0.447213595499957));
#202=DIRECTION('center_axis',(0.249999999999999,-0.433012701892218,0.86602540378444));
#203=DIRECTION('ref_axis',(0.,-0.894427190999917,-0.447213595499957));
#204=DIRECTION('',(2.730787568572E-15,-0.894427190999916,-0.447213595499957));
#205=DIRECTION('center_axis',(-0.25,-0.433012701892219,0.866025403784439));
#206=DIRECTION('ref_axis',(0.866025403784439,-0.5,1.11022302462516E-16));
#207=CARTESIAN_POINT('',(0.,0.,0.));
#208=CARTESIAN_POINT('Origin',(-2.22044604925031E-15,-1.11022302462516E-15,
6.66133814775094E-15));
#209=CARTESIAN_POINT('',(-5.41265877365275,-3.12499999999999,7.7715611723761E-15));
#210=CARTESIAN_POINT('',(-5.41265877365275,3.12499999999999,5.55111512312578E-15));
#211=CARTESIAN_POINT('',(-5.41265877365275,3.12499999999999,5.55111512312578E-15));
#212=CARTESIAN_POINT('',(4.44089209850063E-15,6.25,5.55111512312578E-15));
#213=CARTESIAN_POINT('',(4.28626379701574E-15,6.25,5.55111512312578E-15));
#214=CARTESIAN_POINT('',(5.41265877365274,3.12500000000001,5.55111512312578E-15));
#215=CARTESIAN_POINT('',(5.41265877365274,3.12500000000001,5.55111512312578E-15));
#216=CARTESIAN_POINT('',(5.41265877365274,-3.12500000000001,7.7715611723761E-15));
#217=CARTESIAN_POINT('',(5.41265877365274,-3.12500000000001,7.7715611723761E-15));
#218=CARTESIAN_POINT('',(0.,-6.25,7.7715611723761E-15));
#219=CARTESIAN_POINT('',(0.,-6.25,7.7715611723761E-15));
#220=CARTESIAN_POINT('',(-5.41265877365275,-3.12499999999999,7.7715611723761E-15));
#221=CARTESIAN_POINT('Origin',(-1.39471767468535E-14,4.44089209850063E-15,
2.50000000000001));
#222=CARTESIAN_POINT('',(-1.08253175473057,-0.624999999999992,2.50000000000001));
#223=CARTESIAN_POINT('',(-1.08253175473057,0.625000000000008,2.50000000000001));
#224=CARTESIAN_POINT('',(-1.08253175473057,0.625000000000008,2.50000000000001));
#225=CARTESIAN_POINT('',(-1.52655665885959E-14,-1.25,2.50000000000001));
#226=CARTESIAN_POINT('',(-1.08253175473057,-0.624999999999992,2.50000000000001));
#227=CARTESIAN_POINT('',(1.08253175473054,-0.624999999999992,2.50000000000001));
#228=CARTESIAN_POINT('',(-1.55431223447522E-14,-1.25,2.50000000000001));
#229=CARTESIAN_POINT('',(1.08253175473054,0.625000000000008,2.50000000000001));
#230=CARTESIAN_POINT('',(1.08253175473054,-0.624999999999992,2.50000000000001));
#231=CARTESIAN_POINT('',(-6.93889390390723E-16,1.25,2.50000000000001));
#232=CARTESIAN_POINT('',(1.08253175473054,0.625000000000008,2.50000000000001));
#233=CARTESIAN_POINT('',(-7.40148683083438E-16,1.25,2.50000000000001));
#234=CARTESIAN_POINT('Origin',(-1.08253175473057,-0.624999999999992,2.50000000000001));
#235=CARTESIAN_POINT('',(-1.08253175473057,0.625000000000008,2.50000000000001));
#236=CARTESIAN_POINT('',(-1.08253175473057,-0.624999999999992,2.50000000000001));
#237=CARTESIAN_POINT('Origin',(-1.08253175473057,0.625000000000008,2.50000000000001));
#238=CARTESIAN_POINT('',(-6.93889390390723E-16,1.25,2.50000000000001));
#239=CARTESIAN_POINT('Origin',(-6.93889390390723E-16,1.25,2.50000000000001));
#240=CARTESIAN_POINT('',(1.08253175473054,0.625000000000008,2.50000000000001));
#241=CARTESIAN_POINT('Origin',(1.08253175473054,0.625000000000008,2.50000000000001));
#242=CARTESIAN_POINT('',(1.08253175473054,-0.624999999999992,2.50000000000001));
#243=CARTESIAN_POINT('Origin',(1.08253175473054,-0.624999999999992,2.50000000000001));
#244=CARTESIAN_POINT('',(-1.52655665885959E-14,-1.25,2.50000000000001));
#245=CARTESIAN_POINT('Origin',(-1.52655665885959E-14,-1.25,2.50000000000001));
#246=UNCERTAINTY_MEASURE_WITH_UNIT(LENGTH_MEASURE(0.01),#250,
'DISTANCE_ACCURACY_VALUE',
'Maximum model space distance between geometric entities at asserted c
onnectivities');
#247=UNCERTAINTY_MEASURE_WITH_UNIT(LENGTH_MEASURE(0.01),#250,
'DISTANCE_ACCURACY_VALUE',
'Maximum model space distance between geometric entities at asserted c
onnectivities');
#248=(
GEOMETRIC_REPRESENTATION_CONTEXT(3)
GLOBAL_UNCERTAINTY_ASSIGNED_CONTEXT((#246))
GLOBAL_UNIT_ASSIGNED_CONTEXT((#250,#252,#253))
REPRESENTATION_CONTEXT('','3D')
);
#249=(
GEOMETRIC_REPRESENTATION_CONTEXT(3)
GLOBAL_UNCERTAINTY_ASSIGNED_CONTEXT((#247))
GLOBAL_UNIT_ASSIGNED_CONTEXT((#250,#252,#253))
REPRESENTATION_CONTEXT('','3D')
);
#250=(
LENGTH_UNIT()
NAMED_UNIT(*)
SI_UNIT(.MILLI.,.METRE.)
);
#251=(
LENGTH_UNIT()
NAMED_UNIT(*)
SI_UNIT($,.METRE.)
);
#252=(
NAMED_UNIT(*)
PLANE_ANGLE_UNIT()
SI_UNIT($,.RADIAN.)
);
#253=(
NAMED_UNIT(*)
SI_UNIT($,.STERADIAN.)
SOLID_ANGLE_UNIT()
);
#254=SHAPE_DEFINITION_REPRESENTATION(#255,#256);
#255=PRODUCT_DEFINITION_SHAPE('',$,#258);
#256=SHAPE_REPRESENTATION('',(#162),#248);
#257=PRODUCT_DEFINITION_CONTEXT('part definition',#262,'design');
#258=PRODUCT_DEFINITION('WZ nanodot','WZ nanodot v4',#259,#257);
#259=PRODUCT_DEFINITION_FORMATION('',$,#264);
#260=PRODUCT_RELATED_PRODUCT_CATEGORY('WZ nanodot v4','WZ nanodot v4',(#264));
#261=APPLICATION_PROTOCOL_DEFINITION('international standard',
'automotive_design',2009,#262);
#262=APPLICATION_CONTEXT(
'Core Data for Automotive Mechanical Design Process');
#263=PRODUCT_CONTEXT('part definition',#262,'mechanical');
#264=PRODUCT('WZ nanodot','WZ nanodot v4',$,(#263));
#265=PRESENTATION_STYLE_ASSIGNMENT((#266));
#266=SURFACE_STYLE_USAGE(.BOTH.,#267);
#267=SURFACE_SIDE_STYLE('',(#268));
#268=SURFACE_STYLE_FILL_AREA(#269);
#269=FILL_AREA_STYLE('Steel - Satin',(#270));
#270=FILL_AREA_STYLE_COLOUR('Steel - Satin',#271);
#271=COLOUR_RGB('Steel - Satin',0.627450980392157,0.627450980392157,0.627450980392157);
ENDSEC;
END-ISO-10303-21;
